<mxfile host="app.diagrams.net" modified="2024-09-18T03:00:00.000Z" agent="5.0" etag="xxx" version="21.6.5" type="device">
  <diagram name="序列化性能对比" id="serialization-performance-comparison">
    <mxGraphModel dx="1422" dy="794" grid="1" gridSize="10" guides="1" tooltips="1" connect="1" arrows="1" fold="1" page="1" pageScale="1" pageWidth="1200" pageHeight="800" math="0" shadow="0">
      <root>
        <mxCell id="0" />
        <mxCell id="1" parent="0" />
        
        <!-- 标题 -->
        <mxCell id="title" value="Hadoop RPC序列化引擎性能对比分析" style="text;html=1;strokeColor=none;fillColor=none;align=center;verticalAlign=middle;whiteSpace=wrap;rounded=0;fontSize=18;fontStyle=1;fontColor=#2c3e50;" vertex="1" parent="1">
          <mxGeometry x="400" y="20" width="400" height="40" as="geometry" />
        </mxCell>
        
        <!-- 性能指标图表区域 -->
        <mxCell id="chart-container" value="性能指标对比" style="rounded=1;whiteSpace=wrap;html=1;fillColor=#f8f9fa;strokeColor=#6c757d;fontSize=16;fontStyle=1;verticalAlign=top;" vertex="1" parent="1">
          <mxGeometry x="50" y="80" width="1100" height="300" as="geometry" />
        </mxCell>
        
        <!-- 序列化速度对比 -->
        <mxCell id="speed-title" value="序列化速度 (ops/sec)" style="text;html=1;strokeColor=none;fillColor=none;align=center;verticalAlign=middle;whiteSpace=wrap;rounded=0;fontSize=14;fontStyle=1;fontColor=#2c3e50;" vertex="1" parent="1">
          <mxGeometry x="80" y="110" width="200" height="30" as="geometry" />
        </mxCell>
        
        <!-- WritableRpcEngine速度条 -->
        <mxCell id="writable-speed-bar" value="" style="rounded=1;whiteSpace=wrap;html=1;fillColor=#e74c3c;strokeColor=#c0392b;" vertex="1" parent="1">
          <mxGeometry x="100" y="150" width="80" height="30" as="geometry" />
        </mxCell>
        <mxCell id="writable-speed-label" value="WritableRpcEngine" style="text;html=1;strokeColor=none;fillColor=none;align=left;verticalAlign=middle;whiteSpace=wrap;rounded=0;fontSize=11;fontColor=#2c3e50;" vertex="1" parent="1">
          <mxGeometry x="190" y="150" width="120" height="30" as="geometry" />
        </mxCell>
        <mxCell id="writable-speed-value" value="10,000" style="text;html=1;strokeColor=none;fillColor=none;align=center;verticalAlign=middle;whiteSpace=wrap;rounded=0;fontSize=10;fontColor=#ffffff;fontStyle=1;" vertex="1" parent="1">
          <mxGeometry x="100" y="150" width="80" height="30" as="geometry" />
        </mxCell>
        
        <!-- ProtobufRpcEngine速度条 -->
        <mxCell id="protobuf-speed-bar" value="" style="rounded=1;whiteSpace=wrap;html=1;fillColor=#f39c12;strokeColor=#e67e22;" vertex="1" parent="1">
          <mxGeometry x="100" y="190" width="160" height="30" as="geometry" />
        </mxCell>
        <mxCell id="protobuf-speed-label" value="ProtobufRpcEngine" style="text;html=1;strokeColor=none;fillColor=none;align=left;verticalAlign=middle;whiteSpace=wrap;rounded=0;fontSize=11;fontColor=#2c3e50;" vertex="1" parent="1">
          <mxGeometry x="270" y="190" width="120" height="30" as="geometry" />
        </mxCell>
        <mxCell id="protobuf-speed-value" value="20,000" style="text;html=1;strokeColor=none;fillColor=none;align=center;verticalAlign=middle;whiteSpace=wrap;rounded=0;fontSize=10;fontColor=#ffffff;fontStyle=1;" vertex="1" parent="1">
          <mxGeometry x="100" y="190" width="160" height="30" as="geometry" />
        </mxCell>
        
        <!-- ProtobufRpcEngine2速度条 -->
        <mxCell id="protobuf2-speed-bar" value="" style="rounded=1;whiteSpace=wrap;html=1;fillColor=#27ae60;strokeColor=#229954;" vertex="1" parent="1">
          <mxGeometry x="100" y="230" width="240" height="30" as="geometry" />
        </mxCell>
        <mxCell id="protobuf2-speed-label" value="ProtobufRpcEngine2" style="text;html=1;strokeColor=none;fillColor=none;align=left;verticalAlign=middle;whiteSpace=wrap;rounded=0;fontSize=11;fontColor=#2c3e50;" vertex="1" parent="1">
          <mxGeometry x="350" y="230" width="120" height="30" as="geometry" />
        </mxCell>
        <mxCell id="protobuf2-speed-value" value="30,000" style="text;html=1;strokeColor=none;fillColor=none;align=center;verticalAlign=middle;whiteSpace=wrap;rounded=0;fontSize=10;fontColor=#ffffff;fontStyle=1;" vertex="1" parent="1">
          <mxGeometry x="100" y="230" width="240" height="30" as="geometry" />
        </mxCell>
        
        <!-- 消息大小对比 -->
        <mxCell id="size-title" value="消息大小 (bytes)" style="text;html=1;strokeColor=none;fillColor=none;align=center;verticalAlign=middle;whiteSpace=wrap;rounded=0;fontSize=14;fontStyle=1;fontColor=#2c3e50;" vertex="1" parent="1">
          <mxGeometry x="500" y="110" width="200" height="30" as="geometry" />
        </mxCell>
        
        <!-- WritableRpcEngine大小条 -->
        <mxCell id="writable-size-bar" value="" style="rounded=1;whiteSpace=wrap;html=1;fillColor=#e74c3c;strokeColor=#c0392b;" vertex="1" parent="1">
          <mxGeometry x="520" y="150" width="150" height="30" as="geometry" />
        </mxCell>
        <mxCell id="writable-size-label" value="WritableRpcEngine" style="text;html=1;strokeColor=none;fillColor=none;align=left;verticalAlign=middle;whiteSpace=wrap;rounded=0;fontSize=11;fontColor=#2c3e50;" vertex="1" parent="1">
          <mxGeometry x="680" y="150" width="120" height="30" as="geometry" />
        </mxCell>
        <mxCell id="writable-size-value" value="1,500" style="text;html=1;strokeColor=none;fillColor=none;align=center;verticalAlign=middle;whiteSpace=wrap;rounded=0;fontSize=10;fontColor=#ffffff;fontStyle=1;" vertex="1" parent="1">
          <mxGeometry x="520" y="150" width="150" height="30" as="geometry" />
        </mxCell>
        
        <!-- ProtobufRpcEngine大小条 -->
        <mxCell id="protobuf-size-bar" value="" style="rounded=1;whiteSpace=wrap;html=1;fillColor=#f39c12;strokeColor=#e67e22;" vertex="1" parent="1">
          <mxGeometry x="520" y="190" width="100" height="30" as="geometry" />
        </mxCell>
        <mxCell id="protobuf-size-label" value="ProtobufRpcEngine" style="text;html=1;strokeColor=none;fillColor=none;align=left;verticalAlign=middle;whiteSpace=wrap;rounded=0;fontSize=11;fontColor=#2c3e50;" vertex="1" parent="1">
          <mxGeometry x="630" y="190" width="120" height="30" as="geometry" />
        </mxCell>
        <mxCell id="protobuf-size-value" value="1,000" style="text;html=1;strokeColor=none;fillColor=none;align=center;verticalAlign=middle;whiteSpace=wrap;rounded=0;fontSize=10;fontColor=#ffffff;fontStyle=1;" vertex="1" parent="1">
          <mxGeometry x="520" y="190" width="100" height="30" as="geometry" />
        </mxCell>
        
        <!-- ProtobufRpcEngine2大小条 -->
        <mxCell id="protobuf2-size-bar" value="" style="rounded=1;whiteSpace=wrap;html=1;fillColor=#27ae60;strokeColor=#229954;" vertex="1" parent="1">
          <mxGeometry x="520" y="230" width="60" height="30" as="geometry" />
        </mxCell>
        <mxCell id="protobuf2-size-label" value="ProtobufRpcEngine2" style="text;html=1;strokeColor=none;fillColor=none;align=left;verticalAlign=middle;whiteSpace=wrap;rounded=0;fontSize=11;fontColor=#2c3e50;" vertex="1" parent="1">
          <mxGeometry x="590" y="230" width="120" height="30" as="geometry" />
        </mxCell>
        <mxCell id="protobuf2-size-value" value="600" style="text;html=1;strokeColor=none;fillColor=none;align=center;verticalAlign=middle;whiteSpace=wrap;rounded=0;fontSize=10;fontColor=#ffffff;fontStyle=1;" vertex="1" parent="1">
          <mxGeometry x="520" y="230" width="60" height="30" as="geometry" />
        </mxCell>
        
        <!-- CPU使用率对比 -->
        <mxCell id="cpu-title" value="CPU使用率 (%)" style="text;html=1;strokeColor=none;fillColor=none;align=center;verticalAlign=middle;whiteSpace=wrap;rounded=0;fontSize=14;fontStyle=1;fontColor=#2c3e50;" vertex="1" parent="1">
          <mxGeometry x="850" y="110" width="200" height="30" as="geometry" />
        </mxCell>
        
        <!-- WritableRpcEngine CPU条 -->
        <mxCell id="writable-cpu-bar" value="" style="rounded=1;whiteSpace=wrap;html=1;fillColor=#e74c3c;strokeColor=#c0392b;" vertex="1" parent="1">
          <mxGeometry x="870" y="150" width="120" height="30" as="geometry" />
        </mxCell>
        <mxCell id="writable-cpu-label" value="WritableRpcEngine" style="text;html=1;strokeColor=none;fillColor=none;align=left;verticalAlign=middle;whiteSpace=wrap;rounded=0;fontSize=11;fontColor=#2c3e50;" vertex="1" parent="1">
          <mxGeometry x="1000" y="150" width="120" height="30" as="geometry" />
        </mxCell>
        <mxCell id="writable-cpu-value" value="15%" style="text;html=1;strokeColor=none;fillColor=none;align=center;verticalAlign=middle;whiteSpace=wrap;rounded=0;fontSize=10;fontColor=#ffffff;fontStyle=1;" vertex="1" parent="1">
          <mxGeometry x="870" y="150" width="120" height="30" as="geometry" />
        </mxCell>
        
        <!-- ProtobufRpcEngine CPU条 -->
        <mxCell id="protobuf-cpu-bar" value="" style="rounded=1;whiteSpace=wrap;html=1;fillColor=#f39c12;strokeColor=#e67e22;" vertex="1" parent="1">
          <mxGeometry x="870" y="190" width="80" height="30" as="geometry" />
        </mxCell>
        <mxCell id="protobuf-cpu-label" value="ProtobufRpcEngine" style="text;html=1;strokeColor=none;fillColor=none;align=left;verticalAlign=middle;whiteSpace=wrap;rounded=0;fontSize=11;fontColor=#2c3e50;" vertex="1" parent="1">
          <mxGeometry x="960" y="190" width="120" height="30" as="geometry" />
        </mxCell>
        <mxCell id="protobuf-cpu-value" value="10%" style="text;html=1;strokeColor=none;fillColor=none;align=center;verticalAlign=middle;whiteSpace=wrap;rounded=0;fontSize=10;fontColor=#ffffff;fontStyle=1;" vertex="1" parent="1">
          <mxGeometry x="870" y="190" width="80" height="30" as="geometry" />
        </mxCell>
        
        <!-- ProtobufRpcEngine2 CPU条 -->
        <mxCell id="protobuf2-cpu-bar" value="" style="rounded=1;whiteSpace=wrap;html=1;fillColor=#27ae60;strokeColor=#229954;" vertex="1" parent="1">
          <mxGeometry x="870" y="230" width="50" height="30" as="geometry" />
        </mxCell>
        <mxCell id="protobuf2-cpu-label" value="ProtobufRpcEngine2" style="text;html=1;strokeColor=none;fillColor=none;align=left;verticalAlign=middle;whiteSpace=wrap;rounded=0;fontSize=11;fontColor=#2c3e50;" vertex="1" parent="1">
          <mxGeometry x="930" y="230" width="120" height="30" as="geometry" />
        </mxCell>
        <mxCell id="protobuf2-cpu-value" value="6%" style="text;html=1;strokeColor=none;fillColor=none;align=center;verticalAlign=middle;whiteSpace=wrap;rounded=0;fontSize=10;fontColor=#ffffff;fontStyle=1;" vertex="1" parent="1">
          <mxGeometry x="870" y="230" width="50" height="30" as="geometry" />
        </mxCell>
        
        <!-- 内存使用对比 -->
        <mxCell id="memory-title" value="内存使用 (MB)" style="text;html=1;strokeColor=none;fillColor=none;align=center;verticalAlign=middle;whiteSpace=wrap;rounded=0;fontSize=14;fontStyle=1;fontColor=#2c3e50;" vertex="1" parent="1">
          <mxGeometry x="80" y="290" width="200" height="30" as="geometry" />
        </mxCell>
        
        <!-- WritableRpcEngine内存条 -->
        <mxCell id="writable-memory-bar" value="" style="rounded=1;whiteSpace=wrap;html=1;fillColor=#e74c3c;strokeColor=#c0392b;" vertex="1" parent="1">
          <mxGeometry x="100" y="330" width="180" height="30" as="geometry" />
        </mxCell>
        <mxCell id="writable-memory-label" value="WritableRpcEngine" style="text;html=1;strokeColor=none;fillColor=none;align=left;verticalAlign=middle;whiteSpace=wrap;rounded=0;fontSize=11;fontColor=#2c3e50;" vertex="1" parent="1">
          <mxGeometry x="290" y="330" width="120" height="30" as="geometry" />
        </mxCell>
        <mxCell id="writable-memory-value" value="180" style="text;html=1;strokeColor=none;fillColor=none;align=center;verticalAlign=middle;whiteSpace=wrap;rounded=0;fontSize=10;fontColor=#ffffff;fontStyle=1;" vertex="1" parent="1">
          <mxGeometry x="100" y="330" width="180" height="30" as="geometry" />
        </mxCell>
        
        <!-- ProtobufRpcEngine内存条 -->
        <mxCell id="protobuf-memory-bar" value="" style="rounded=1;whiteSpace=wrap;html=1;fillColor=#f39c12;strokeColor=#e67e22;" vertex="1" parent="1">
          <mxGeometry x="450" y="330" width="120" height="30" as="geometry" />
        </mxCell>
        <mxCell id="protobuf-memory-label" value="ProtobufRpcEngine" style="text;html=1;strokeColor=none;fillColor=none;align=left;verticalAlign=middle;whiteSpace=wrap;rounded=0;fontSize=11;fontColor=#2c3e50;" vertex="1" parent="1">
          <mxGeometry x="580" y="330" width="120" height="30" as="geometry" />
        </mxCell>
        <mxCell id="protobuf-memory-value" value="120" style="text;html=1;strokeColor=none;fillColor=none;align=center;verticalAlign=middle;whiteSpace=wrap;rounded=0;fontSize=10;fontColor=#ffffff;fontStyle=1;" vertex="1" parent="1">
          <mxGeometry x="450" y="330" width="120" height="30" as="geometry" />
        </mxCell>
        
        <!-- ProtobufRpcEngine2内存条 -->
        <mxCell id="protobuf2-memory-bar" value="" style="rounded=1;whiteSpace=wrap;html=1;fillColor=#27ae60;strokeColor=#229954;" vertex="1" parent="1">
          <mxGeometry x="750" y="330" width="80" height="30" as="geometry" />
        </mxCell>
        <mxCell id="protobuf2-memory-label" value="ProtobufRpcEngine2" style="text;html=1;strokeColor=none;fillColor=none;align=left;verticalAlign=middle;whiteSpace=wrap;rounded=0;fontSize=11;fontColor=#2c3e50;" vertex="1" parent="1">
          <mxGeometry x="840" y="330" width="120" height="30" as="geometry" />
        </mxCell>
        <mxCell id="protobuf2-memory-value" value="80" style="text;html=1;strokeColor=none;fillColor=none;align=center;verticalAlign=middle;whiteSpace=wrap;rounded=0;fontSize=10;fontColor=#ffffff;fontStyle=1;" vertex="1" parent="1">
          <mxGeometry x="750" y="330" width="80" height="30" as="geometry" />
        </mxCell>
        
        <!-- 详细性能分析 -->
        <mxCell id="analysis-container" value="详细性能分析" style="rounded=1;whiteSpace=wrap;html=1;fillColor=#f8f9fa;strokeColor=#6c757d;fontSize=16;fontStyle=1;verticalAlign=top;" vertex="1" parent="1">
          <mxGeometry x="50" y="400" width="1100" height="350" as="geometry" />
        </mxCell>
        
        <!-- WritableRpcEngine分析 -->
        <mxCell id="writable-analysis" value="WritableRpcEngine 性能特征" style="rounded=1;whiteSpace=wrap;html=1;fillColor=#ffebee;strokeColor=#e74c3c;fontSize=14;fontStyle=1;verticalAlign=top;" vertex="1" parent="1">
          <mxGeometry x="80" y="430" width="320" height="300" as="geometry" />
        </mxCell>
        
        <mxCell id="writable-perf1" value="序列化机制：" style="text;html=1;strokeColor=none;fillColor=none;align=left;verticalAlign=middle;whiteSpace=wrap;rounded=0;fontSize=12;fontStyle=1;fontColor=#2c3e50;" vertex="1" parent="1">
          <mxGeometry x="100" y="460" width="100" height="20" as="geometry" />
        </mxCell>
        
        <mxCell id="writable-perf1-desc" value="• Java原生序列化\n• 基于DataOutput/DataInput\n• 反射调用开销大\n• 对象创建频繁" style="text;html=1;strokeColor=none;fillColor=none;align=left;verticalAlign=top;whiteSpace=wrap;rounded=0;fontSize=11;fontColor=#2c3e50;" vertex="1" parent="1">
          <mxGeometry x="100" y="480" width="280" height="60" as="geometry" />
        </mxCell>
        
        <mxCell id="writable-perf2" value="性能瓶颈：" style="text;html=1;strokeColor=none;fillColor=none;align=left;verticalAlign=middle;whiteSpace=wrap;rounded=0;fontSize=12;fontStyle=1;fontColor=#2c3e50;" vertex="1" parent="1">
          <mxGeometry x="100" y="550" width="100" height="20" as="geometry" />
        </mxCell>
        
        <mxCell id="writable-perf2-desc" value="• 序列化速度慢\n• 消息体积大\n• CPU使用率高\n• 内存分配多" style="text;html=1;strokeColor=none;fillColor=none;align=left;verticalAlign=top;whiteSpace=wrap;rounded=0;fontSize=11;fontColor=#2c3e50;" vertex="1" parent="1">
          <mxGeometry x="100" y="570" width="280" height="60" as="geometry" />
        </mxCell>
        
        <mxCell id="writable-perf3" value="适用场景：" style="text;html=1;strokeColor=none;fillColor=none;align=left;verticalAlign=middle;whiteSpace=wrap;rounded=0;fontSize=12;fontStyle=1;fontColor=#2c3e50;" vertex="1" parent="1">
          <mxGeometry x="100" y="640" width="100" height="20" as="geometry" />
        </mxCell>
        
        <mxCell id="writable-perf3-desc" value="• 小规模集群\n• 低并发场景\n• 兼容性要求高\n• 开发调试简单" style="text;html=1;strokeColor=none;fillColor=none;align=left;verticalAlign=top;whiteSpace=wrap;rounded=0;fontSize=11;fontColor=#2c3e50;" vertex="1" parent="1">
          <mxGeometry x="100" y="660" width="280" height="60" as="geometry" />
        </mxCell>
        
        <!-- ProtobufRpcEngine分析 -->
        <mxCell id="protobuf-analysis" value="ProtobufRpcEngine 性能特征" style="rounded=1;whiteSpace=wrap;html=1;fillColor=#fef9e7;strokeColor=#f39c12;fontSize=14;fontStyle=1;verticalAlign=top;" vertex="1" parent="1">
          <mxGeometry x="420" y="430" width="320" height="300" as="geometry" />
        </mxCell>
        
        <mxCell id="protobuf-perf1" value="序列化机制：" style="text;html=1;strokeColor=none;fillColor=none;align=left;verticalAlign=middle;whiteSpace=wrap;rounded=0;fontSize=12;fontStyle=1;fontColor=#2c3e50;" vertex="1" parent="1">
          <mxGeometry x="440" y="460" width="100" height="20" as="geometry" />
        </mxCell>
        
        <mxCell id="protobuf-perf1-desc" value="• Protocol Buffers 2.5\n• 二进制紧凑格式\n• 代码生成优化\n• 类型安全保证" style="text;html=1;strokeColor=none;fillColor=none;align=left;verticalAlign=top;whiteSpace=wrap;rounded=0;fontSize=11;fontColor=#2c3e50;" vertex="1" parent="1">
          <mxGeometry x="440" y="480" width="280" height="60" as="geometry" />
        </mxCell>
        
        <mxCell id="protobuf-perf2" value="性能提升：" style="text;html=1;strokeColor=none;fillColor=none;align=left;verticalAlign=middle;whiteSpace=wrap;rounded=0;fontSize=12;fontStyle=1;fontColor=#2c3e50;" vertex="1" parent="1">
          <mxGeometry x="440" y="550" width="100" height="20" as="geometry" />
        </mxCell>
        
        <mxCell id="protobuf-perf2-desc" value="• 序列化速度提升2倍\n• 消息大小减少33%\n• CPU使用率降低33%\n• 内存效率提升33%" style="text;html=1;strokeColor=none;fillColor=none;align=left;verticalAlign=top;whiteSpace=wrap;rounded=0;fontSize=11;fontColor=#2c3e50;" vertex="1" parent="1">
          <mxGeometry x="440" y="570" width="280" height="60" as="geometry" />
        </mxCell>
        
        <mxCell id="protobuf-perf3" value="适用场景：" style="text;html=1;strokeColor=none;fillColor=none;align=left;verticalAlign=middle;whiteSpace=wrap;rounded=0;fontSize=12;fontStyle=1;fontColor=#2c3e50;" vertex="1" parent="1">
          <mxGeometry x="440" y="640" width="100" height="20" as="geometry" />
        </mxCell>
        
        <mxCell id="protobuf-perf3-desc" value="• 中等规模集群\n• 性能敏感应用\n• 跨语言需求\n• 过渡期使用" style="text;html=1;strokeColor=none;fillColor=none;align=left;verticalAlign=top;whiteSpace=wrap;rounded=0;fontSize=11;fontColor=#2c3e50;" vertex="1" parent="1">
          <mxGeometry x="440" y="660" width="280" height="60" as="geometry" />
        </mxCell>
        
        <!-- ProtobufRpcEngine2分析 -->
        <mxCell id="protobuf2-analysis" value="ProtobufRpcEngine2 性能特征" style="rounded=1;whiteSpace=wrap;html=1;fillColor=#eafaf1;strokeColor=#27ae60;fontSize=14;fontStyle=1;verticalAlign=top;" vertex="1" parent="1">
          <mxGeometry x="760" y="430" width="320" height="300" as="geometry" />
        </mxCell>
        
        <mxCell id="protobuf2-perf1" value="序列化机制：" style="text;html=1;strokeColor=none;fillColor=none;align=left;verticalAlign=middle;whiteSpace=wrap;rounded=0;fontSize=12;fontStyle=1;fontColor=#2c3e50;" vertex="1" parent="1">
          <mxGeometry x="780" y="460" width="100" height="20" as="geometry" />
        </mxCell>
        
        <mxCell id="protobuf2-perf1-desc" value="• Protocol Buffers 3.x\n• 阴影类库隔离\n• 异步处理支持\n• 零拷贝优化" style="text;html=1;strokeColor=none;fillColor=none;align=left;verticalAlign=top;whiteSpace=wrap;rounded=0;fontSize=11;fontColor=#2c3e50;" vertex="1" parent="1">
          <mxGeometry x="780" y="480" width="280" height="60" as="geometry" />
        </mxCell>
        
        <mxCell id="protobuf2-perf2" value="性能优势：" style="text;html=1;strokeColor=none;fillColor=none;align=left;verticalAlign=middle;whiteSpace=wrap;rounded=0;fontSize=12;fontStyle=1;fontColor=#2c3e50;" vertex="1" parent="1">
          <mxGeometry x="780" y="550" width="100" height="20" as="geometry" />
        </mxCell>
        
        <mxCell id="protobuf2-perf2-desc" value="• 序列化速度提升3倍\n• 消息大小减少60%\n• CPU使用率降低60%\n• 内存效率提升55%" style="text;html=1;strokeColor=none;fillColor=none;align=left;verticalAlign=top;whiteSpace=wrap;rounded=0;fontSize=11;fontColor=#2c3e50;" vertex="1" parent="1">
          <mxGeometry x="780" y="570" width="280" height="60" as="geometry" />
        </mxCell>
        
        <mxCell id="protobuf2-perf3" value="适用场景：" style="text;html=1;strokeColor=none;fillColor=none;align=left;verticalAlign=middle;whiteSpace=wrap;rounded=0;fontSize=12;fontStyle=1;fontColor=#2c3e50;" vertex="1" parent="1">
          <mxGeometry x="780" y="640" width="100" height="20" as="geometry" />
        </mxCell>
        
        <mxCell id="protobuf2-perf3-desc" value="• 大规模集群\n• 高并发场景\n• 企业级应用\n• 现代化架构" style="text;html=1;strokeColor=none;fillColor=none;align=left;verticalAlign=top;whiteSpace=wrap;rounded=0;fontSize=11;fontColor=#2c3e50;" vertex="1" parent="1">
          <mxGeometry x="780" y="660" width="280" height="60" as="geometry" />
        </mxCell>
        
      </root>
    </mxGraphModel>
  </diagram>
</mxfile>
